<svg width="221.000000" height="50.000000" viewBox="0 0 221 50" fill="none" xmlns="http://www.w3.org/2000/svg" xmlns:xlink="http://www.w3.org/1999/xlink">
	<desc>
			Created with Pixso.
	</desc>
	<defs>
		<clipPath id="clip10_327">
			<rect id="facebook" width="50.000000" height="50.000000" transform="translate(171.000000 0.000000)" fill="white" fill-opacity="0"/>
		</clipPath>
		<clipPath id="clip10_329">
			<rect id="twitter" width="50.000000" height="50.000000" transform="translate(120.000000 0.000000)" fill="white" fill-opacity="0"/>
		</clipPath>
		<clipPath id="clip10_335">
			<rect id="youtube" width="50.000000" height="50.000000" fill="white" fill-opacity="0"/>
		</clipPath>
		<clipPath id="clip10_331">
			<rect id="instagram" width="50.000000" height="50.000000" transform="translate(60.000000 0.000000)" fill="white" fill-opacity="0"/>
		</clipPath>
	</defs>
	<rect id="facebook" width="50.000000" height="50.000000" transform="translate(171.000000 0.000000)" fill="#FFFFFF" fill-opacity="0"/>
	<g clip-path="url(#clip10_327)">
		<path id="Vector" d="M202.25 4.1665C199.487 4.1665 196.838 5.26416 194.884 7.21729C192.931 9.1709 191.833 11.8203 191.833 14.583L191.833 20.833L185.583 20.833L185.583 29.1665L191.833 29.1665L191.833 45.833L200.167 45.833L200.167 29.1665L206.417 29.1665L208.5 20.833L200.167 20.833L200.167 14.583C200.167 14.0308 200.386 13.501 200.777 13.1099C201.168 12.7192 201.698 12.5 202.25 12.5L208.5 12.5L208.5 4.1665L202.25 4.1665Z" stroke="#FFFFFF" stroke-opacity="1.000000" stroke-width="2.000000" stroke-linejoin="round"/>
	</g>
	<rect id="twitter" width="50.000000" height="50.000000" transform="translate(120.000000 0.000000)" fill="#FFFFFF" fill-opacity="0"/>
	<g clip-path="url(#clip10_329)">
		<path id="Vector" d="M161.375 9.4375C160.12 7.99463 158.453 6.97217 156.598 6.5083C154.743 6.04395 152.791 6.16064 151.004 6.84277C149.218 7.52441 147.684 8.73828 146.61 10.3203C145.537 11.9023 144.974 13.7759 145 15.6875L145 17.771C141.339 17.8657 137.711 17.0537 134.44 15.4072C131.168 13.7607 128.355 11.3306 126.25 8.3335C126.25 8.3335 117.917 27.0835 136.667 35.4165C132.376 38.3291 127.265 39.7896 122.083 39.5835C140.833 50 163.75 39.5835 163.75 15.625C163.748 15.0444 163.692 14.4658 163.583 13.896C165.71 11.7988 167.21 9.15137 167.917 6.25C165.922 7.65723 163.713 8.7334 161.375 9.4375Z" stroke="#FFFFFF" stroke-opacity="1.000000" stroke-width="2.000000" stroke-linejoin="round"/>
	</g>
	<rect id="youtube" width="50.000000" height="50.000000" fill="#FFFFFF" fill-opacity="0"/>
	<g clip-path="url(#clip10_335)">
		<path id="Vector" d="M45.4972 10.749C44.7876 10.0171 43.8974 9.48584 42.9167 9.2085C39.3333 8.3335 25 8.3335 25 8.3335C25 8.3335 10.6667 8.3335 7.08334 9.29199C6.1026 9.56934 5.21246 10.1006 4.50281 10.832C3.79318 11.564 3.28915 12.4697 3.04169 13.4585C2.38586 17.0952 2.06509 20.7842 2.08334 24.4795C2.05997 28.2021 2.38077 31.9194 3.04169 35.5835C3.31451 36.5415 3.8298 37.4131 4.53781 38.1138C5.24582 38.8145 6.12256 39.3208 7.08334 39.5835C10.6667 40.542 25 40.542 25 40.542C25 40.542 39.3333 40.542 42.9167 39.5835C43.8974 39.3062 44.7876 38.7744 45.4972 38.043C46.2068 37.3115 46.7109 36.4058 46.9583 35.417C47.6091 31.8076 47.9299 28.1465 47.9167 24.4795C47.9401 20.7563 47.6193 17.0391 46.9583 13.375C46.7109 12.3862 46.2068 11.4805 45.4972 10.749Z" stroke="#FFFFFF" stroke-opacity="1.000000" stroke-width="2.000000" stroke-linejoin="round"/>
		<path id="Vector" d="M32.2917 24.479L20.3125 17.6665L20.3125 31.2915L32.2917 24.479Z" stroke="#FFFFFF" stroke-opacity="1.000000" stroke-width="2.000000" stroke-linejoin="round"/>
	</g>
	<rect id="instagram" width="50.000000" height="50.000000" transform="translate(60.000000 0.000000)" fill="#FFFFFF" fill-opacity="0"/>
	<g clip-path="url(#clip10_331)">
		<path id="Vector" d="M95.4166 4.1665C101.17 4.1665 105.833 8.83008 105.833 14.583L105.833 35.4165C105.833 41.1694 101.17 45.833 95.4166 45.833L74.5833 45.833C68.8303 45.833 64.1666 41.1694 64.1666 35.4165L64.1666 14.583C64.1666 8.83008 68.8303 4.1665 74.5833 4.1665L95.4166 4.1665Z" stroke="#FFFFFF" stroke-opacity="1.000000" stroke-width="2.000000" stroke-linejoin="round"/>
		<path id="Vector" d="M92.487 28.748C91.6797 30.3037 90.4024 31.5654 88.8368 32.3535C87.2711 33.1416 85.4968 33.416 83.7663 33.1377C82.0357 32.8589 80.437 32.042 79.1976 30.8027C77.9582 29.563 77.1411 27.9644 76.8627 26.2339C76.5842 24.5034 76.8585 22.729 77.6465 21.1636C78.4346 19.5977 79.6963 18.3203 81.2521 17.5132C82.8079 16.7061 84.5787 16.4097 86.3125 16.667C88.0811 16.9292 89.7185 17.7534 90.9827 19.0176C92.247 20.2817 93.0711 21.9189 93.3334 23.6875C93.5905 25.4214 93.2943 27.1924 92.487 28.748Z" stroke="#FFFFFF" stroke-opacity="1.000000" stroke-width="2.000000" stroke-linejoin="round"/>
		<path id="Vector" d="M96.4584 13.5415L96.4792 13.5415" stroke="#FFFFFF" stroke-opacity="1.000000" stroke-width="2.000000" stroke-linejoin="round" stroke-linecap="round"/>
	</g>
</svg>
